<svg xmlns="http://www.w3.org/2000/svg" width="43.328" height="40.62" viewBox="0 0 43.328 40.62">
  <path id="Icon_simple-microsoftaccess" data-name="Icon simple-microsoftaccess" d="M43.328,26.886c-.092.978-1.4,1.76-3.909,2.329a43.2,43.2,0,0,1-9.46.865q-1.682,0-3.223-.047v5.927c1.027.06,2.1.1,3.223.1a40.365,40.365,0,0,0,9.449-1.016c2.517-.646,3.827-1.459,3.919-2.439ZM29.911,22.612c-1.089,0-2.165-.029-3.221-.092l.047,6.039c1.029.029,2.1.054,3.223.054a39.762,39.762,0,0,0,9.458-1c2.513-.625,3.818-1.435,3.909-2.41V19.377q-.138,1.47-3.932,2.356a42.214,42.214,0,0,1-9.485.894v-.014Zm0-7.442c-1.089,0-2.165-.034-3.221-.1V21.1c1.056.061,2.134.1,3.221.1a41.257,41.257,0,0,0,9.485-1q3.794-.959,3.932-2.43V11.973q-.138,1.473-3.932,2.336a43.841,43.841,0,0,1-9.485.865Zm0-8.353c-1.089,0-2.165.045-3.221.139v6.674c1.056.061,2.134.09,3.221.09a41.232,41.232,0,0,0,9.485-.989q3.8-.942,3.932-2.439Q43.19,8.825,39.4,7.845a40.136,40.136,0,0,0-9.485-1Zm-18.223,9.4c-.058.356-.309,1.488-.744,3.385l-.812,3.311,3.25.045-.758-3.313c-.462-1.93-.76-3.085-.814-3.412H11.7l-.013-.016ZM0,5.463V37.525l24.453,4.221V1.125ZM14.956,29.355l-.91-3.614-4.5-.162-.865,3.4-2.872-.19,4.367-15.3,3.34-.188,4.764,16.239-3.331-.19h.009Z" transform="translate(0 -1.125)" fill="#eb6330"/>
</svg>
