<svg xmlns="http://www.w3.org/2000/svg" width="26.939" height="26.939" viewBox="0 0 26.939 26.939">
  <path id="Icon_ionic-md-call" data-name="Icon ionic-md-call" d="M29.943,23.208a17.566,17.566,0,0,1-5.313-.823,1.4,1.4,0,0,0-1.5.374L19.84,26.051a22.506,22.506,0,0,1-9.878-9.878l3.293-3.292a1.56,1.56,0,0,0,.374-1.5A16.277,16.277,0,0,1,12.731,6a1.5,1.5,0,0,0-1.5-1.5H6A1.5,1.5,0,0,0,4.5,6,25.422,25.422,0,0,0,29.943,31.439a1.5,1.5,0,0,0,1.5-1.5V24.7A1.5,1.5,0,0,0,29.943,23.208Z" transform="translate(-4.5 -4.5)" fill="#2bb573"/>
</svg>
