<svg xmlns="http://www.w3.org/2000/svg" width="54.4" height="54.4" viewBox="0 0 54.4 54.4">
  <path id="Icon_ionic-ios-contact" data-name="Icon ionic-ios-contact" d="M30.575,3.375h0A27.188,27.188,0,0,0,3.532,27.711a26.211,26.211,0,0,0,0,5.728A27.188,27.188,0,0,0,30.575,57.775h0a27.2,27.2,0,0,0,0-54.4ZM48.333,46.019c-2.968-1.125-7.781-2.772-10.775-3.662-.314-.092-.353-.118-.353-1.4a7.442,7.442,0,0,1,.863-3.047,15.2,15.2,0,0,0,1.2-4.132,9.188,9.188,0,0,0,1.778-4.3c.418-2.118.222-2.89-.052-3.609a2.315,2.315,0,0,1-.078-.222,23.516,23.516,0,0,1,.405-5.074,9.343,9.343,0,0,0-1.948-6.708,10,10,0,0,0-7.65-3.662H29.437a9.983,9.983,0,0,0-7.585,3.662,9.3,9.3,0,0,0-1.962,6.708,23.516,23.516,0,0,1,.405,5.074c-.026.092-.052.157-.078.235-.275.719-.484,1.491-.052,3.609a9.33,9.33,0,0,0,1.778,4.3,15.826,15.826,0,0,0,1.2,4.132,7.305,7.305,0,0,1,.5,3.086c0,1.295-.052,1.308-.34,1.4-3.1.915-7.7,2.537-10.462,3.635A23.537,23.537,0,0,1,47.222,13.928a23.538,23.538,0,0,1,1.112,32.091Z" transform="translate(-3.375 -3.375)" fill="#4afba2"/>
</svg>
