<svg xmlns="http://www.w3.org/2000/svg" width="43.328" height="42.538" viewBox="0 0 43.328 42.538">
  <path id="Icon_simple-microsoftexcel" data-name="Icon simple-microsoftexcel" d="M42.521,5.533H28.006V8.22h4.279v4.25H28.006v1.354h4.279v4.255H28.006v1.392h4.279v4.024H28.006v1.612h4.279V29.14H28.006v1.612h4.279v4.057H28.006v2.959H42.521c.229-.069.421-.339.574-.809a3.959,3.959,0,0,0,.233-1.148V6.024c0-.231-.079-.37-.233-.419A1.986,1.986,0,0,0,42.521,5.533ZM40.638,34.805H33.675V30.752h6.963v4.053Zm0-5.665H33.675V25.105h6.963Zm0-5.647H33.675V19.487h6.963v4.006Zm0-5.416H33.675v-4.25h6.963v4.25Zm0-5.631H33.675V8.222h6.963v4.225ZM0,4.864V38.445l25.564,4.421V.329L0,4.878Zm15.152,25.4q-.146-.4-1.368-3.363c-.811-1.979-1.3-3.13-1.442-3.459H12.3L9.554,29.971l-3.665-.247L10.236,21.6,6.256,13.475l3.737-.2,2.47,6.357h.049L15.3,12.989l3.862-.244-4.6,8.792L19.3,30.507l-4.151-.244Z" transform="translate(0 -0.328)" fill="#00803c"/>
</svg>
