<svg xmlns="http://www.w3.org/2000/svg" width="47.888" height="46.691" viewBox="0 0 47.888 46.691">
  <path id="Icon_simple-adobephotoshop" data-name="Icon simple-adobephotoshop" d="M0,.45V47.141H47.888V.45Zm2,2h43.9v42.7H2Zm9.578,8.939c0-.134.279-.231.447-.231,1.285-.066,3.169-.1,5.144-.1,5.531,0,7.682,3.033,7.682,6.916,0,5.068-3.675,7.243-8.185,7.243-.758,0-1.018-.034-1.546-.034v7.666c0,.166-.066.231-.229.231H11.8c-.166,0-.229-.06-.229-.225V11.385Zm3.542,10.6c.459.032.822.032,1.616.032,2.335,0,4.529-.822,4.529-3.983,0-2.534-1.568-3.819-4.234-3.819-.79,0-1.546.032-1.91.066v7.71Zm17.174-2.37c-1.58,0-2.107.79-2.107,1.449,0,.724.359,1.217,2.468,2.3,3.129,1.516,4.114,2.963,4.114,5.1,0,3.193-2.434,4.909-5.727,4.909a8.718,8.718,0,0,1-4.09-.858c-.13-.066-.16-.164-.16-.329V29.263c0-.2.1-.265.227-.168a7.351,7.351,0,0,0,4.015,1.185c1.58,0,2.239-.658,2.239-1.548,0-.724-.459-1.351-2.468-2.4-2.833-1.357-4.019-2.734-4.019-5.042,0-2.568,2.007-4.709,5.5-4.709a9.3,9.3,0,0,1,3.58.559.435.435,0,0,1,.2.4v2.734c0,.166-.1.265-.3.2a7.146,7.146,0,0,0-3.478-.858Z" transform="translate(0 -0.45)" fill="#16a2ff"/>
</svg>
