<svg xmlns="http://www.w3.org/2000/svg" width="43.328" height="41.054" viewBox="0 0 43.328 41.054">
  <path id="Icon_simple-microsoftpowerpoint" data-name="Icon simple-microsoftpowerpoint" d="M42.4,7.029H26.976v5.752a5.386,5.386,0,0,1,3.349-1.062v5.593h5.55A5.6,5.6,0,0,1,30.3,22.925a5.793,5.793,0,0,1-3.3-1.11v3.844h12.13v1.887H26.992v2.334H39.115v1.863H26.985v4.225H42.408c.625,0,.921-.329.921-.969V7.95a.808.808,0,0,0-.921-.921ZM31.2,16.392v-5.64a5.6,5.6,0,0,1,5.586,5.64ZM14.9,16.485a1.735,1.735,0,0,0-.475-.852,1.983,1.983,0,0,0-.872-.444,4.757,4.757,0,0,0-1.246-.162l-1.3.025v5.414h.047a12.8,12.8,0,0,0,1.489,0,3.466,3.466,0,0,0,1.461-.406,2.4,2.4,0,0,0,1.013-1.65,4.56,4.56,0,0,0-.116-2.006v.081ZM0,5.33v32.4L24.712,42V.945Zm18.438,14.6a4.979,4.979,0,0,1-3.04,3.006,11.927,11.927,0,0,1-4.385.5v6.178L7.761,29.24V12.266L12.923,12a7.983,7.983,0,0,1,2.827.325,3.87,3.87,0,0,1,2.208,1.665,5.946,5.946,0,0,1,.921,2.9A7.1,7.1,0,0,1,18.438,19.93Z" transform="translate(0 -0.945)" fill="#e94d2d"/>
</svg>
