<svg xmlns="http://www.w3.org/2000/svg" width="30.243" height="24.58" viewBox="0 0 30.243 24.58">
  <path id="Icon_simple-twitter" data-name="Icon simple-twitter" d="M30.184,6.3a12.6,12.6,0,0,1-3.56.977,6.248,6.248,0,0,0,2.726-3.431,12.806,12.806,0,0,1-3.94,1.492A6.2,6.2,0,0,0,14.685,9.565a6.344,6.344,0,0,0,.16,1.416A17.559,17.559,0,0,1,2.067,4.522a6.076,6.076,0,0,0-.839,3.119A6.2,6.2,0,0,0,3.984,12.8a6.18,6.18,0,0,1-2.807-.776V12.1a6.2,6.2,0,0,0,4.972,6.082,6.256,6.256,0,0,1-2.787.107,6.22,6.22,0,0,0,5.8,4.306A12.434,12.434,0,0,1,1.474,25.25,13.159,13.159,0,0,1,0,25.166a17.635,17.635,0,0,0,9.522,2.783c11.409,0,17.64-9.445,17.64-17.623,0-.263,0-.529-.019-.794a12.52,12.52,0,0,0,3.1-3.211L30.184,6.3Z" transform="translate(0 -3.369)" fill="#07b3ff"/>
</svg>
