<svg xmlns="http://www.w3.org/2000/svg" width="44.962" height="42.577" viewBox="0 0 44.962 42.577">
  <path id="Icon_simple-microsoftword" data-name="Icon simple-microsoftword" d="M44.962,6.756v31a.839.839,0,0,1-.279.648.951.951,0,0,1-.674.259H27.973v-4.3H41.054V32.406H27.962v-2.4H41.043V28.054H27.972V25.637H41.049V23.7H27.972V21.281H41.049V19.325H27.972v-2.4H41.049V14.975H27.972V12.53H41.049V10.668H27.972V5.81H44.013a.845.845,0,0,1,.671.279.869.869,0,0,1,.279.667ZM25.573.963v42.57L0,39.108V5.508L25.573.955ZM21.714,13.531l-3.2.2L16.459,26.439h-.047c-.1-.6-.478-2.707-1.152-6.308l-1.2-6.113-3.005.15-1.2,5.963c-.7,3.473-1.094,5.5-1.2,6.063H8.629L6.8,14.484l-2.754.146L7,29.4l3.061.2,1.152-5.748c.674-3.372,1.068-5.332,1.152-5.868h.084c.114.571.48,2.574,1.152,6.014l1.152,5.917,3.316.2,3.71-16.581h-.066Z" transform="translate(0 -0.956)" fill="#417bbc"/>
</svg>
