<svg xmlns="http://www.w3.org/2000/svg" width="20.938" height="20.938" viewBox="0 0 20.938 20.938">
  <path id="Icon_awesome-check-circle" data-name="Icon awesome-check-circle" d="M21.5,11.031A10.469,10.469,0,1,1,11.031.563,10.469,10.469,0,0,1,21.5,11.031ZM9.82,16.574l7.767-7.767a.675.675,0,0,0,0-.955L16.632,6.9a.675.675,0,0,0-.955,0L9.343,13.231,6.385,10.274a.675.675,0,0,0-.955,0l-.955.955a.675.675,0,0,0,0,.955l4.39,4.39a.675.675,0,0,0,.955,0Z" transform="translate(-0.563 -0.563)" fill="#2bb573"/>
</svg>
