<svg xmlns="http://www.w3.org/2000/svg" width="22" height="22" viewBox="0 0 22 22">
  <path id="Icon_ionic-ios-close-circle" data-name="Icon ionic-ios-close-circle" d="M14.375,3.375a11,11,0,1,0,11,11A11,11,0,0,0,14.375,3.375Zm2.787,14.982L14.375,15.57l-2.787,2.787a.845.845,0,1,1-1.2-1.2l2.787-2.787-2.787-2.787a.845.845,0,1,1,1.2-1.2l2.787,2.787,2.787-2.787a.845.845,0,0,1,1.2,1.2L15.57,14.375l2.787,2.787a.849.849,0,0,1,0,1.2A.84.84,0,0,1,17.162,18.357Z" transform="translate(-3.375 -3.375)" fill="#f55656"/>
</svg>
