<svg xmlns="http://www.w3.org/2000/svg" width="627.376" height="429.307" viewBox="0 0 627.376 429.307">
  <g id="Group_75" data-name="Group 75" transform="translate(-975.624 -215)">
    <g id="Group_1" data-name="Group 1" transform="translate(975.624 217.569)">
      <path id="Path_3" data-name="Path 3" d="M843.9,695.812H254.854a.854.854,0,1,1,0-1.707H843.9a.854.854,0,0,1,0,1.707Z" transform="translate(-254 -272.346)" fill="#ccc"/>
      <path id="Path_4" data-name="Path 4" d="M816.35,521.7h-346.6a5.549,5.549,0,0,0,0,11.1h9.817V665.549a5.549,5.549,0,0,0,11.1,0l.084-132.748H794.581V665.549a5.549,5.549,0,0,0,11.1,0V535.726l1.615-2.926h9.057a5.549,5.549,0,0,0,0-11.1Z" transform="translate(-284.755 -247.122)" fill="#ccc"/>
      <path id="Path_5" data-name="Path 5" d="M676.486,512.57H571.5a7.676,7.676,0,0,1-7.668-7.668V447.1a7.676,7.676,0,0,1,7.668-7.668H676.486a7.676,7.676,0,0,1,7.668,7.668v57.8a7.676,7.676,0,0,1-7.668,7.668Z" transform="translate(-299.332 -235.084)" fill="#3f3d56"/>
      <path id="Path_6" data-name="Path 6" d="M677.5,446.345H572.51a1.771,1.771,0,0,0-1.767,1.767v57.8a1.771,1.771,0,0,0,1.767,1.767H677.5a1.771,1.771,0,0,0,1.767-1.767v-57.8a1.771,1.771,0,0,0-1.767-1.767Z" transform="translate(-300.343 -236.096)" fill="#26252a"/>
      <path id="Path_10" data-name="Path 10" d="M684.525,516.612H673.318a1.18,1.18,0,0,0-1.18-1.18H668.6a1.18,1.18,0,0,0-1.18,1.18h-3.539a1.18,1.18,0,0,0-1.18-1.18h-3.538a1.18,1.18,0,0,0-1.18,1.18h-3.539a1.18,1.18,0,0,0-1.18-1.18h-3.539a1.18,1.18,0,0,0-1.18,1.18h-3.539a1.18,1.18,0,0,0-1.18-1.18h-3.539a1.18,1.18,0,0,0-1.18,1.18H635.57a1.18,1.18,0,0,0-1.18-1.18h-3.539a1.18,1.18,0,0,0-1.18,1.18h-3.539a1.18,1.18,0,0,0-1.18-1.18h-3.539a1.18,1.18,0,0,0-1.18,1.18H616.7a1.18,1.18,0,0,0-1.18-1.18h-3.539a1.18,1.18,0,0,0-1.18,1.18h-3.539a1.18,1.18,0,0,0-1.18-1.18H602.54a1.18,1.18,0,0,0-1.18,1.18h-3.539a1.18,1.18,0,0,0-1.18-1.18H593.1a1.18,1.18,0,0,0-1.18,1.18h-3.539a1.18,1.18,0,0,0-1.18-1.18h-3.539a1.18,1.18,0,0,0-1.18,1.18h-3.539a1.18,1.18,0,0,0-1.18-1.18h-3.539a1.18,1.18,0,0,0-1.18,1.18H561.842a3.539,3.539,0,1,0,0,7.078H684.525a3.539,3.539,0,0,0,0-7.078Z" transform="translate(-298.523 -246.204)" fill="#3f3d56"/>
      <path id="Path_11" data-name="Path 11" d="M528.9,492.739v23.5H470.032a11.756,11.756,0,1,1,0-23.5Z" transform="translate(-283.828 -242.883)" fill="#f2f2f2"/>
      <path id="Path_12" data-name="Path 12" d="M530.133,515.965a.9.9,0,0,1-.9.9H468.766a12.382,12.382,0,0,1,0-24.764H529.23a.9.9,0,0,1,0,1.808H468.766a10.574,10.574,0,1,0,0,21.149H529.23A.9.9,0,0,1,530.133,515.965Z" transform="translate(-283.611 -242.791)" fill="#2bb573"/>
      <path id="Path_13" data-name="Path 13" d="M530.205,499.03H466.94a.181.181,0,1,1,0-.361H530.2a.181.181,0,0,1,0,.361Z" transform="translate(-285.129 -243.751)" fill="#ccc"/>
      <path id="Path_14" data-name="Path 14" d="M530.205,504.112H466.94a.181.181,0,1,1,0-.361H530.2a.181.181,0,0,1,0,.362Z" transform="translate(-285.129 -244.495)" fill="#ccc"/>
      <path id="Path_15" data-name="Path 15" d="M530.205,509.193H466.94a.181.181,0,1,1,0-.361H530.2a.181.181,0,0,1,0,.361Z" transform="translate(-285.129 -245.238)" fill="#ccc"/>
      <path id="Path_16" data-name="Path 16" d="M530.205,514.275H466.94a.181.181,0,1,1,0-.362H530.2a.181.181,0,0,1,0,.362Z" transform="translate(-285.129 -245.982)" fill="#ccc"/>
      <path id="Path_17" data-name="Path 17" d="M515.9,463.739v23.5H457.032a11.756,11.756,0,1,1,0-23.5Z" transform="translate(-281.926 -238.64)" fill="#f2f2f2"/>
      <path id="Path_18" data-name="Path 18" d="M517.133,486.965a.9.9,0,0,1-.9.9H455.766a12.382,12.382,0,0,1,0-24.764H516.23a.9.9,0,1,1,0,1.808H455.766a10.574,10.574,0,1,0,0,21.148H516.23A.9.9,0,0,1,517.133,486.965Z" transform="translate(-281.709 -238.548)" fill="#3f3d56"/>
      <path id="Path_19" data-name="Path 19" d="M517.205,470.03H453.94a.181.181,0,1,1,0-.362H517.2a.181.181,0,0,1,0,.362Z" transform="translate(-283.227 -239.508)" fill="#ccc"/>
      <path id="Path_20" data-name="Path 20" d="M517.205,475.112H453.94a.181.181,0,1,1,0-.362H517.2a.181.181,0,0,1,0,.362Z" transform="translate(-283.227 -240.252)" fill="#ccc"/>
      <path id="Path_21" data-name="Path 21" d="M517.205,480.193H453.94a.181.181,0,1,1,0-.362H517.2a.181.181,0,0,1,0,.362Z" transform="translate(-283.227 -240.995)" fill="#ccc"/>
      <path id="Path_22" data-name="Path 22" d="M517.205,485.275H453.94a.181.181,0,1,1,0-.361H517.2a.181.181,0,0,1,0,.362Z" transform="translate(-283.227 -241.739)" fill="#ccc"/>
      <path id="Path_23" data-name="Path 23" d="M593.818,614.008V593.52A3.415,3.415,0,0,0,590.4,590.1H512.718a3.415,3.415,0,0,0-3.415,3.415v20.489Z" transform="translate(-291.354 -257.13)" fill="#ccc"/>
      <rect id="Rectangle_6" data-name="Rectangle 6" width="84.515" height="26.464" transform="translate(217.949 364.561)" fill="#ccc"/>
      <path id="Path_24" data-name="Path 24" d="M509.3,667.1v20.489a3.415,3.415,0,0,0,3.415,3.415H590.4a3.415,3.415,0,0,0,3.415-3.415V667.1Z" transform="translate(-291.354 -268.396)" fill="#ccc"/>
      <circle id="Ellipse_2" data-name="Ellipse 2" cx="2.561" cy="2.561" r="2.561" transform="translate(257.219 343.219)" fill="#fff"/>
      <circle id="Ellipse_3" data-name="Ellipse 3" cx="2.561" cy="2.561" r="2.561" transform="translate(257.219 377.367)" fill="#fff"/>
      <circle id="Ellipse_4" data-name="Ellipse 4" cx="2.561" cy="2.561" r="2.561" transform="translate(257.356 410.791)" fill="#fff"/>
      <path id="Path_25" data-name="Path 25" d="M584.9,562.739v23.5H526.032a11.756,11.756,0,1,1,0-23.5Z" transform="translate(-292.022 -253.125)" fill="#f2f2f2"/>
      <path id="Path_26" data-name="Path 26" d="M586.133,585.965a.9.9,0,0,1-.9.9H524.766a12.382,12.382,0,1,1,0-24.764H585.23a.9.9,0,0,1,0,1.808H524.766a10.574,10.574,0,1,0,0,21.149H585.23a.9.9,0,0,1,.9.9Z" transform="translate(-291.805 -253.033)" fill="#3f3d56"/>
      <path id="Path_27" data-name="Path 27" d="M586.205,569.03H522.94a.181.181,0,0,1,0-.362H586.2a.181.181,0,0,1,0,.362Z" transform="translate(-293.323 -253.993)" fill="#ccc"/>
      <path id="Path_28" data-name="Path 28" d="M586.205,574.112H522.94a.181.181,0,0,1,0-.362H586.2a.181.181,0,0,1,0,.362Z" transform="translate(-293.323 -254.737)" fill="#ccc"/>
      <path id="Path_29" data-name="Path 29" d="M586.205,579.193H522.94a.181.181,0,0,1,0-.362H586.2a.181.181,0,0,1,0,.362Z" transform="translate(-293.323 -255.48)" fill="#ccc"/>
      <path id="Path_30" data-name="Path 30" d="M586.205,584.275H522.94a.181.181,0,0,1,0-.362H586.2a.181.181,0,0,1,0,.362Z" transform="translate(-293.323 -256.224)" fill="#ccc"/>
      <path id="Path_31" data-name="Path 31" d="M504.11,356.3V206.483a6.428,6.428,0,0,1,6.421-6.421H628.962a6.428,6.428,0,0,1,6.421,6.421V356.3a6.428,6.428,0,0,1-6.421,6.421H510.531a6.428,6.428,0,0,1-6.422-6.421Zm6.421-154.816a5,5,0,0,0-4.994,4.994V356.3a5,5,0,0,0,4.994,4.994H628.962a5,5,0,0,0,4.994-4.994V206.483a5,5,0,0,0-4.994-4.994Z" transform="translate(-290.594 -200.062)" fill="#e6e6e6"/>
      <path id="Path_32" data-name="Path 32" d="M588.776,274.836V244.074a3.214,3.214,0,0,1,3.21-3.21h26.069a3.214,3.214,0,0,1,3.211,3.21v30.763a3.214,3.214,0,0,1-3.21,3.211H591.986a3.214,3.214,0,0,1-3.211-3.211Z" transform="translate(-302.982 -206.031)" fill="#2bb573"/>
      <path id="Path_33" data-name="Path 33" d="M529.44,291.551V260.788a3.214,3.214,0,0,1,3.21-3.21h26.069a3.214,3.214,0,0,1,3.21,3.21v30.763a3.214,3.214,0,0,1-3.21,3.21H532.65a3.214,3.214,0,0,1-3.21-3.21Z" transform="translate(-294.3 -208.477)" fill="#ccc"/>
      <path id="Path_34" data-name="Path 34" d="M577.076,342.529V311.767a3.214,3.214,0,0,1,3.211-3.21h26.069a3.214,3.214,0,0,1,3.211,3.21V342.53a3.214,3.214,0,0,1-3.21,3.21H580.286A3.214,3.214,0,0,1,577.076,342.529Z" transform="translate(-301.27 -215.936)" fill="#ff6584"/>
      <path id="Path_35" data-name="Path 35" d="M753.551,513.1H726.728a1.657,1.657,0,0,0-.734.171l-6.77,3.389a1.234,1.234,0,0,0,0,2.271l6.77,3.389a1.657,1.657,0,0,0,.734.171h26.823a1.408,1.408,0,0,0,1.486-1.306v-6.778A1.408,1.408,0,0,0,753.551,513.1Z" transform="translate(-321.958 -245.863)" fill="#3f3d56"/>
      <path id="Path_36" data-name="Path 36" d="M760.132,514.411v6.778a1.408,1.408,0,0,1-1.486,1.306H753.3V513.1h5.344A1.408,1.408,0,0,1,760.132,514.411Z" transform="translate(-327.054 -245.863)" fill="#2bb573"/>
      <path id="Path_37" data-name="Path 37" d="M758.354,453.573a9.393,9.393,0,0,1,12.712,5.9,9.028,9.028,0,0,1,.273,1.225l37.509,18.6,8.681-5.753,10.8,12.434-13.254,10.764a9.517,9.517,0,0,1-11.355.438l-38.057-26.318a8.971,8.971,0,0,1-.866.316,9.393,9.393,0,0,1-11.961-7.308,9.151,9.151,0,0,1-.139-1.144,9.421,9.421,0,0,1,5.656-9.159Z" transform="translate(-326.963 -237.041)" fill="#ffb8b8"/>
      <path id="Path_38" data-name="Path 38" d="M835.844,587.853H794.858c0,1.178-42.24,2.134-42.24,2.134a10.978,10.978,0,0,0-1.8,1.707,10.594,10.594,0,0,0-2.476,6.829v1.707A10.675,10.675,0,0,0,759.012,610.9h76.832a10.68,10.68,0,0,0,10.671-10.671v-1.707A10.686,10.686,0,0,0,835.844,587.853Z" transform="translate(-326.328 -256.8)" fill="#3f3d56"/>
      <rect id="Rectangle_7" data-name="Rectangle 7" width="11.098" height="71.71" transform="translate(476.032 425.388) rotate(180)" fill="#3f3d56"/>
      <path id="Path_39" data-name="Path 39" d="M761.617,696.065c0,1.2,16.817.464,37.562.464s37.562.735,37.562-.464-16.817-10.708-37.562-10.708S761.617,694.865,761.617,696.065Z" transform="translate(-328.271 -271.066)" fill="#3f3d56"/>
      <path id="Path_40" data-name="Path 40" d="M516.706,483.341H506.241l-4.98-27.145h15.447Z" transform="translate(-73.341 -66.747)" fill="#ffb8b8"/>
      <path id="Path_41" data-name="Path 41" d="M770.7,697.613H736.949v-.427a13.135,13.135,0,0,1,13.135-13.135H770.7Z" transform="translate(-324.661 -270.875)" fill="#2f2e41"/>
      <path id="Path_42" data-name="Path 42" d="M751.19,651.788,730.325,605a17.147,17.147,0,0,1,7.528-22.012l45.257-24.268,20.652-1.757,19.05-1.732.137.233c.176.3,4.272,7.371,1.5,15.129-2.1,5.884-7.563,10.48-16.236,13.661-20.245,7.423-43.631,13.767-52.746,16.15a2.946,2.946,0,0,0-1.888,1.5,2.986,2.986,0,0,0-.168,2.389l19.384,43.55a3.842,3.842,0,0,1-3.252,5.147l-14.484,1.055q-.184.017-.367.017a3.839,3.839,0,0,1-3.505-2.276Z" transform="translate(-323.478 -252.027)" fill="#2f2e41"/>
      <path id="Path_43" data-name="Path 43" d="M522.706,483.341H512.241l-4.98-27.145h15.447Z" transform="translate(-74.218 -66.747)" fill="#ffb8b8"/>
      <path id="Path_44" data-name="Path 44" d="M776.7,697.613H742.949v-.427a13.135,13.135,0,0,1,13.135-13.135H776.7Z" transform="translate(-325.539 -270.875)" fill="#2f2e41"/>
      <path id="Path_45" data-name="Path 45" d="M758.19,654.788,737.325,608a17.147,17.147,0,0,1,7.528-22.012l45.257-24.268,20.652-1.757,19.05-1.732.137.233c.176.3,4.272,7.371,1.5,15.129-2.1,5.884-7.563,10.48-16.236,13.661-20.245,7.423-43.631,13.767-52.746,16.15a2.946,2.946,0,0,0-1.888,1.5,2.987,2.987,0,0,0-.168,2.389l19.384,43.55a3.842,3.842,0,0,1-3.252,5.147l-14.484,1.055q-.184.017-.367.018A3.839,3.839,0,0,1,758.19,654.788Z" transform="translate(-324.502 -252.466)" fill="#2f2e41"/>
      <path id="Path_46" data-name="Path 46" d="M746.279,493.744a143,143,0,0,1-20.553-38.358,3.673,3.673,0,0,1,1.735-4.422l30-16.076a3.625,3.625,0,0,1,3.18-.129,3.687,3.687,0,0,1,2.1,2.462,87.356,87.356,0,0,0,19.162,35.762,3.687,3.687,0,0,1,.886,3.113,3.625,3.625,0,0,1-1.869,2.576l-30,16.076a3.673,3.673,0,0,1-4.641-1Z" transform="translate(-322.99 -234.356)" fill="#ccc"/>
      <path id="Path_47" data-name="Path 47" d="M748.764,492.645a1.108,1.108,0,0,0,1.385.286l30-16.077a1.064,1.064,0,0,0,.557-.766,1.125,1.125,0,0,0-.278-.963,89.929,89.929,0,0,1-19.726-36.815,1.126,1.126,0,0,0-.647-.764,1.064,1.064,0,0,0-.948.039l-30,16.076a1.108,1.108,0,0,0-.529,1.312,140.437,140.437,0,0,0,20.185,37.671Z" transform="translate(-323.429 -234.795)" fill="#fff"/>
      <path id="Path_48" data-name="Path 48" d="M861.486,495.495l-23.5,8.929-5.737-15.935a9.534,9.534,0,0,1,4.27-11.524h0a9.534,9.534,0,0,1,12.176,2.377Z" transform="translate(-338.523 -240.394)" fill="#2bb573"/>
      <path id="Path_49" data-name="Path 49" d="M796.051,558.565a4.267,4.267,0,0,1-1.779-3.03c-3.01-28.095-.913-50.081,6.408-67.215a21.335,21.335,0,0,1,14.143-12.1l18.994-.959.1.048a22.2,22.2,0,0,1,12.138,23.551c-6.109,16.1-11.225,32.869-7.323,46.395a4.373,4.373,0,0,1-.413,3.4,4.17,4.17,0,0,1-2.66,1.971l-36.178,8.606a4.238,4.238,0,0,1-3.429-.664Z" transform="translate(-332.854 -240.326)" fill="#2bb573"/>
      <circle id="Ellipse_5" data-name="Ellipse 5" cx="20.967" cy="20.967" r="20.967" transform="translate(473.656 185.901)" fill="#ffb8b8"/>
      <path id="Path_50" data-name="Path 50" d="M761.757,460.841l-16.341,7.213a2.564,2.564,0,0,1-3.377-1.309l-.4-.916a2.564,2.564,0,0,1,1.309-3.377l16.341-7.213a2.564,2.564,0,0,1,3.377,1.309l.4.916A2.564,2.564,0,0,1,761.757,460.841Z" transform="translate(-325.315 -237.365)" fill="#ccc"/>
      <path id="Path_51" data-name="Path 51" d="M768.757,473.841l-16.341,7.213a2.564,2.564,0,0,1-3.377-1.309l-.4-.916a2.564,2.564,0,0,1,1.309-3.377l16.341-7.213a2.564,2.564,0,0,1,3.377,1.309l.4.916a2.564,2.564,0,0,1-1.309,3.377Z" transform="translate(-326.339 -239.267)" fill="#ccc"/>
      <path id="Path_52" data-name="Path 52" d="M778.632,517.558,742.2,488.817a8.984,8.984,0,0,1-.885.261,9.414,9.414,0,0,1-7.528-1.444,9.316,9.316,0,0,1-3.95-6.6,9.392,9.392,0,0,1,18.47-3.245,9.032,9.032,0,0,1,.2,1.24l36.266,20.922,9.025-5.2,10,13.089-14.013,9.987a9.341,9.341,0,0,1-11.149-.272Z" transform="translate(-323.612 -239.637)" fill="#ffb8b8"/>
      <path id="Path_53" data-name="Path 53" d="M818.123,513.523l-20.786-14.135,9.769-13.836A9.534,9.534,0,0,1,819,482.446h0a9.534,9.534,0,0,1,5.032,11.339Z" transform="translate(-333.497 -241.242)" fill="#2bb573"/>
      <path id="Path_54" data-name="Path 54" d="M820.641,434.293c-5.389,3.688-12.465,7.48-17.969,3.552a10.016,10.016,0,0,1-3.287-11.546c2.636-7.537,9.877-10.855,16.8-13.4,9-3.306,18.8-5.937,28.1-3.569s17.505,11.365,15.828,20.807c-1.349,7.593-8.511,13.911-7.495,21.555,1.023,7.694,9.676,11.743,17.314,13.118s16.186,1.817,21.676,7.3c7,7,5.254,19.51-1.335,26.9s-16.533,10.739-26.169,13.017c-12.766,3.017-26.574,4.6-38.7-.4s-21.56-18.486-18.048-31.125c1.484-5.339,4.979-9.851,8.356-14.243s6.8-8.986,8.086-14.375c1.074-4.491.279-9.705-2.7-13.074a3.788,3.788,0,0,1-.507-4.428Z" transform="translate(-333.706 -230.547)" fill="#2f2e41"/>
      <path id="Path_55" data-name="Path 55" d="M353.062,543a33.348,33.348,0,0,1-32.2-5.673c-11.279-9.467-14.815-25.063-17.693-39.5L294.657,455.1l17.818,12.269c12.814,8.823,25.916,17.929,34.788,30.708s12.745,30.225,5.616,44.053" transform="translate(-259.949 -237.378)" fill="#e6e6e6"/>
      <path id="Path_56" data-name="Path 56" d="M356.914,604.013c1.8-13.136,3.658-26.441,2.393-39.718-1.123-11.791-4.721-23.308-12.045-32.751a54.484,54.484,0,0,0-13.978-12.667c-1.4-.882-2.684,1.333-1.293,2.211a51.794,51.794,0,0,1,20.488,24.72c4.46,11.345,5.177,23.712,4.408,35.764-.465,7.288-1.45,14.529-2.443,21.76a1.327,1.327,0,0,0,.894,1.575,1.288,1.288,0,0,0,1.575-.894Z" transform="translate(-265.323 -246.678)" fill="#f2f2f2"/>
      <path id="Path_57" data-name="Path 57" d="M328.361,586.855a24.548,24.548,0,0,1-21.389,11.039c-10.827-.514-19.854-8.071-27.98-15.245l-24.034-21.22,15.907-.761c11.439-.547,23.173-1.058,34.069,2.47s20.944,12.017,22.936,23.295" transform="translate(-254.14 -252.766)" fill="#e6e6e6"/>
      <path id="Path_58" data-name="Path 58" d="M358.134,620.691c-8.68-15.359-18.748-32.428-36.738-37.884a41,41,0,0,0-15.453-1.6c-1.641.141-1.231,2.67.407,2.529a38.086,38.086,0,0,1,24.66,6.524c6.953,4.733,12.367,11.313,16.949,18.291,2.807,4.274,5.321,8.729,7.835,13.179C356.6,623.156,358.947,622.129,358.134,620.691Z" transform="translate(-261.447 -255.805)" fill="#f2f2f2"/>
      <path id="Path_59" data-name="Path 59" d="M376.6,642.231a18.588,18.588,0,0,0-11.391-15.569v-8.879H350.316v9.159a18.578,18.578,0,0,0-10.77,15.289l-3.5,40.707H380.1Z" transform="translate(-266.004 -261.179)" fill="#f2f2f2"/>
    </g>
    <path id="Icon_simple-microsoftword" data-name="Icon simple-microsoftword" d="M124,16.952v85.5a2.315,2.315,0,0,1-.77,1.788,2.624,2.624,0,0,1-1.86.713H77.147V93.091h36.075v-5.4H77.116V81.083h36.075V75.689H77.142V69.024h36.065V63.692H77.142V57.011h36.065V51.617H77.142V45.008h36.065V39.619H77.142V32.876h36.065V27.741H77.142v-13.4H121.38a2.33,2.33,0,0,1,1.85.77,2.4,2.4,0,0,1,.77,1.839ZM70.528.976v117.4L0,106.174V13.511L70.528.955ZM59.884,35.636l-8.83.543L45.391,71.235h-.129c-.279-1.659-1.318-7.466-3.178-17.4l-3.3-16.86-8.288.413L27.178,53.839c-1.938,9.579-3.017,15.154-3.3,16.72H23.8L18.761,38.266l-7.6.4L19.3,79.4l8.443.543L30.924,64.09c1.86-9.3,2.945-14.7,3.178-16.183h.233c.315,1.576,1.323,7.1,3.178,16.586L40.689,80.81l9.145.543,10.23-45.727h-.181Z" transform="translate(1479 214.044)" fill="#3886dc"/>
    <path id="Icon_simple-microsoftaccess" data-name="Icon simple-microsoftaccess" d="M94.933,57.567c-.2,2.144-3.058,3.857-8.564,5.1a94.64,94.64,0,0,1-20.727,1.895q-3.685,0-7.061-.1V77.447c2.251.131,4.6.21,7.061.21a88.442,88.442,0,0,0,20.7-2.227c5.514-1.416,8.386-3.2,8.588-5.344ZM65.536,48.2c-2.385,0-4.743-.063-7.057-.2l.1,13.231c2.255.063,4.6.119,7.061.119,8.307-.059,15.221-.771,20.723-2.2,5.506-1.369,8.366-3.145,8.564-5.281V41.116q-.3,3.222-8.615,5.162a92.491,92.491,0,0,1-20.782,1.958V48.2Zm0-16.3c-2.385,0-4.743-.075-7.057-.21V44.881c2.314.134,4.675.21,7.057.21a90.394,90.394,0,0,0,20.782-2.2q8.313-2.1,8.615-5.324V24.894q-.3,3.228-8.615,5.118a96.056,96.056,0,0,1-20.782,1.895Zm0-18.3c-2.385,0-4.743.1-7.057.3V28.525c2.314.134,4.675.2,7.057.2a90.341,90.341,0,0,0,20.782-2.168q8.319-2.065,8.615-5.344-.3-3.216-8.615-5.364a87.94,87.94,0,0,0-20.782-2.2V13.6ZM25.608,34.2c-.127.779-.676,3.259-1.63,7.417L22.2,48.869l7.12.1-1.661-7.258c-1.013-4.228-1.665-6.76-1.784-7.476h-.237l-.028-.036ZM0,10.63V80.877l53.578,9.248v-89ZM32.768,62.978l-1.994-7.919L20.909,54.7l-1.895,7.46-6.293-.415L22.29,28.225l7.318-.411,10.439,35.58-7.3-.415Z" transform="translate(1024 331.875)" fill="#ee7056"/>
    <path id="Icon_simple-microsoftexcel" data-name="Icon simple-microsoftexcel" d="M62.409,7.968h-21.3V11.91h6.28v6.237h-6.28v1.987h6.28v6.245h-6.28v2.043h6.28V34.33h-6.28V36.7h6.28v5.92h-6.28v2.366h6.28v5.954h-6.28v4.343h21.3c.337-.1.617-.5.843-1.187a5.81,5.81,0,0,0,.342-1.685V8.688c0-.339-.117-.543-.342-.615A2.915,2.915,0,0,0,62.409,7.968ZM59.646,50.931H49.425V44.982h10.22v5.949Zm0-8.315H49.425V36.693h10.22Zm0-8.288H49.425v-5.88h10.22v5.88Zm0-7.949H49.425V20.141h10.22v6.237Zm0-8.265H49.425v-6.2h10.22v6.2ZM0,6.985V56.272l37.52,6.489V.329L0,7.006ZM22.239,44.269q-.215-.58-2.008-4.936c-1.19-2.9-1.908-4.595-2.117-5.077h-.066l-4.025,9.579-5.379-.363,6.381-11.924L9.181,19.624l5.485-.289,3.625,9.33h.072l4.094-9.754,5.668-.358-6.749,12.9,6.956,13.164-6.092-.358Z" transform="translate(1361 314.738)" fill="#00803c"/>
    <path id="Icon_simple-microsoft" data-name="Icon simple-microsoft" d="M8.774,18.471H0V9.7H8.774Zm9.7,0H9.7V9.7h8.774Zm-9.7-9.7H0V0H8.774Zm9.7,0H9.7V0h8.774Z" transform="translate(1292.399 447.1)" fill="#31c7ff"/>
  </g>
</svg>
